<svg width="375" height="223" viewBox="0 0 375 223" fill="none" xmlns="http://www.w3.org/2000/svg">
<line x1="1.5" y1="-1.5" x2="71.1154" y2="-1.5" transform="matrix(0.922669 -0.385593 -0.385593 -0.922669 0 220.501)" stroke="white" stroke-width="3" stroke-linecap="round"/>
<line x1="96.8531" y1="152.093" x2="67.1699" y2="193.835" stroke="white" stroke-width="3" stroke-linecap="round"/>
<line x1="208.538" y1="221.306" x2="144.306" y2="194.463" stroke="white" stroke-width="3" stroke-linecap="round"/>
<line x1="1.5" y1="-1.5" x2="52.72" y2="-1.5" transform="matrix(0.579524 0.814955 0.814955 -0.579524 114 150.001)" stroke="white" stroke-width="3" stroke-linecap="round"/>
<line x1="97" y1="221.501" x2="97" y2="9.50089" stroke="white" stroke-width="3" stroke-linecap="round"/>
<line x1="97" y1="9.50089" x2="105" y2="9.50089" stroke="white" stroke-width="3" stroke-linecap="round"/>
<line x1="105" y1="205.501" x2="105" y2="17.5009" stroke="white" stroke-width="3" stroke-linecap="round"/>
<line x1="105" y1="213.501" x2="112" y2="213.501" stroke="white" stroke-width="3" stroke-linecap="round"/>
<line x1="98" y1="221.501" x2="113" y2="221.501" stroke="white" stroke-width="3" stroke-linecap="round"/>
<line x1="1.5" y1="-1.5" x2="88.5" y2="-1.5" transform="matrix(-1 0 0 1 150.5 68.0009)" stroke="white" stroke-width="3" stroke-linecap="round"/>
<line x1="1.5" y1="-1.5" x2="17.5" y2="-1.5" transform="matrix(0 -1 -1 0 60.5 68.0009)" stroke="white" stroke-width="3" stroke-linecap="round"/>
<line x1="1.5" y1="-1.5" x2="64.5" y2="-1.5" transform="matrix(1 0 0 -1 76.5 57.0009)" stroke="white" stroke-width="3" stroke-linecap="round"/>
<line x1="1.5" y1="-1.5" x2="9.5" y2="-1.5" transform="matrix(0 1 1 0 150.5 49.0009)" stroke="white" stroke-width="3" stroke-linecap="round"/>
<line x1="1.5" y1="-1.5" x2="80.5" y2="-1.5" transform="matrix(-1 0 0 1 150.5 52.0009)" stroke="white" stroke-width="3" stroke-linecap="round"/>
<line x1="1.5" y1="-1.5" x2="10.5" y2="-1.5" transform="matrix(0.0001297 1 1 -0.0001297 71.5 49.0009)" stroke="white" stroke-width="3" stroke-linecap="round"/>
<line x1="112.876" y1="213.5" x2="113" y2="1.50002" stroke="white" stroke-width="3" stroke-linecap="round"/>
<line x1="113.015" y1="1.50089" x2="96" y2="1.50089" stroke="white" stroke-width="3" stroke-linecap="round"/>
<path d="M173.852 113.626C173.943 112.342 173.602 111.347 172.83 110.643C172.068 109.938 170.864 109.586 169.216 109.586C168.125 109.586 167.193 109.728 166.42 110.012C165.648 110.285 165.04 110.671 164.597 111.171C164.153 111.66 163.875 112.228 163.761 112.876C163.659 113.387 163.688 113.842 163.847 114.24C164.006 114.637 164.284 114.99 164.682 115.296C165.091 115.603 165.597 115.87 166.199 116.097C166.813 116.325 167.5 116.524 168.261 116.694L171.125 117.376C172.784 117.751 174.222 118.251 175.438 118.876C176.665 119.49 177.659 120.234 178.42 121.109C179.182 121.972 179.705 122.967 179.989 124.092C180.273 125.217 180.295 126.478 180.057 127.876C179.693 130.08 178.824 131.972 177.449 133.552C176.085 135.132 174.301 136.342 172.097 137.183C169.903 138.024 167.352 138.444 164.443 138.444C161.534 138.444 159.063 138.007 157.028 137.132C155.006 136.245 153.54 134.91 152.631 133.126C151.722 131.342 151.477 129.092 151.898 126.376H159.96C159.835 127.501 159.977 128.438 160.386 129.188C160.807 129.938 161.455 130.507 162.33 130.893C163.205 131.279 164.261 131.472 165.5 131.472C166.636 131.472 167.631 131.319 168.483 131.012C169.347 130.705 170.034 130.279 170.545 129.734C171.068 129.188 171.386 128.563 171.5 127.859C171.614 127.211 171.506 126.649 171.176 126.171C170.858 125.694 170.313 125.279 169.54 124.927C168.778 124.575 167.778 124.257 166.54 123.972L163.045 123.12C160.159 122.416 157.972 121.291 156.483 119.745C155.006 118.2 154.483 116.103 154.915 113.455C155.278 111.285 156.176 109.387 157.608 107.762C159.051 106.137 160.875 104.876 163.08 103.978C165.295 103.069 167.733 102.615 170.392 102.615C173.097 102.615 175.369 103.075 177.21 103.995C179.063 104.904 180.398 106.188 181.216 107.847C182.045 109.495 182.284 111.421 181.932 113.626H173.852ZM201.79 111.819L200.75 117.955H184.233L185.273 111.819H201.79ZM189.756 105.546H198.091L194.068 129.768C193.989 130.279 194 130.694 194.102 131.012C194.216 131.319 194.42 131.541 194.716 131.677C195.023 131.802 195.398 131.865 195.841 131.865C196.148 131.865 196.489 131.83 196.864 131.762C197.239 131.694 197.523 131.643 197.716 131.609L197.989 137.626C197.545 137.751 196.949 137.893 196.199 138.052C195.46 138.222 194.597 138.33 193.608 138.376C191.608 138.455 189.955 138.222 188.648 137.677C187.352 137.12 186.438 136.257 185.903 135.086C185.381 133.916 185.278 132.45 185.597 130.688L189.756 105.546ZM247.344 115.74H238.923C238.969 114.853 238.884 114.063 238.668 113.37C238.452 112.666 238.111 112.063 237.645 111.563C237.179 111.052 236.599 110.666 235.906 110.404C235.213 110.143 234.406 110.012 233.486 110.012C231.724 110.012 230.128 110.45 228.696 111.325C227.264 112.2 226.065 113.461 225.099 115.109C224.134 116.757 223.457 118.734 223.071 121.041C222.719 123.268 222.724 125.126 223.088 126.615C223.463 128.103 224.156 129.222 225.168 129.972C226.179 130.711 227.463 131.08 229.02 131.08C230.031 131.08 230.969 130.961 231.832 130.722C232.707 130.472 233.497 130.115 234.202 129.649C234.906 129.183 235.514 128.62 236.026 127.961C236.548 127.291 236.952 126.546 237.236 125.728H245.724C245.304 127.262 244.611 128.791 243.645 130.313C242.69 131.825 241.486 133.194 240.031 134.421C238.577 135.649 236.889 136.632 234.969 137.37C233.048 138.109 230.912 138.478 228.56 138.478C225.344 138.478 222.571 137.757 220.241 136.313C217.923 134.87 216.247 132.779 215.213 130.041C214.19 127.291 213.997 123.961 214.634 120.052C215.259 116.268 216.491 113.08 218.332 110.49C220.185 107.899 222.435 105.938 225.082 104.609C227.741 103.279 230.577 102.615 233.588 102.615C235.77 102.615 237.73 102.91 239.469 103.501C241.219 104.08 242.702 104.933 243.918 106.058C245.134 107.171 246.037 108.541 246.628 110.166C247.23 111.791 247.469 113.649 247.344 115.74ZM259.382 123.069L256.893 138.001H248.558L254.354 103.092H262.416L260.2 116.626H260.49C261.331 115.012 262.501 113.751 264.001 112.842C265.501 111.933 267.24 111.478 269.217 111.478C271.036 111.478 272.558 111.887 273.786 112.705C275.013 113.512 275.882 114.654 276.393 116.132C276.905 117.609 276.996 119.336 276.666 121.313L273.871 138.001H265.536L268.058 122.95C268.286 121.495 268.098 120.359 267.496 119.541C266.893 118.722 265.928 118.313 264.598 118.313C263.723 118.313 262.916 118.507 262.178 118.893C261.45 119.268 260.842 119.808 260.354 120.512C259.865 121.217 259.541 122.069 259.382 123.069ZM286.335 138.444C284.676 138.444 283.244 138.166 282.04 137.609C280.847 137.041 279.972 136.183 279.415 135.035C278.869 133.887 278.739 132.455 279.023 130.74C279.273 129.285 279.733 128.063 280.403 127.075C281.085 126.075 281.92 125.262 282.909 124.637C283.909 124.012 285.023 123.535 286.25 123.205C287.477 122.876 288.761 122.654 290.102 122.541C291.602 122.404 292.818 122.257 293.75 122.097C294.693 121.938 295.398 121.717 295.864 121.433C296.33 121.137 296.614 120.728 296.716 120.205V120.12C296.852 119.245 296.665 118.569 296.153 118.092C295.642 117.615 294.875 117.376 293.852 117.376C292.761 117.376 291.83 117.615 291.057 118.092C290.284 118.569 289.744 119.228 289.438 120.069L281.801 119.796C282.278 118.205 283.097 116.785 284.256 115.535C285.415 114.274 286.886 113.285 288.67 112.569C290.466 111.842 292.54 111.478 294.892 111.478C296.551 111.478 298.051 111.677 299.392 112.075C300.733 112.461 301.864 113.029 302.784 113.779C303.716 114.518 304.381 115.427 304.778 116.507C305.176 117.586 305.261 118.819 305.034 120.205L302.051 138.001H294.21L294.824 134.353H294.619C294.006 135.24 293.284 135.99 292.455 136.603C291.636 137.217 290.716 137.677 289.693 137.984C288.67 138.291 287.551 138.444 286.335 138.444ZM289.847 132.99C290.722 132.99 291.551 132.808 292.335 132.444C293.119 132.08 293.778 131.58 294.312 130.944C294.858 130.296 295.205 129.546 295.352 128.694L295.744 126.205C295.506 126.33 295.205 126.444 294.841 126.546C294.477 126.649 294.091 126.745 293.682 126.836C293.273 126.916 292.852 126.995 292.42 127.075C292 127.143 291.597 127.205 291.21 127.262C290.392 127.387 289.682 127.58 289.08 127.842C288.477 128.103 287.994 128.444 287.631 128.865C287.278 129.274 287.063 129.762 286.983 130.33C286.847 131.183 287.045 131.842 287.58 132.308C288.114 132.762 288.869 132.99 289.847 132.99ZM316.676 138.376C314.744 138.376 313.068 137.876 311.648 136.876C310.227 135.876 309.21 134.376 308.597 132.376C307.994 130.376 307.938 127.893 308.426 124.927C308.938 121.847 309.847 119.313 311.153 117.325C312.46 115.336 313.983 113.865 315.722 112.91C317.472 111.955 319.256 111.478 321.074 111.478C322.449 111.478 323.585 111.717 324.483 112.194C325.392 112.66 326.102 113.262 326.614 114.001C327.125 114.74 327.477 115.507 327.67 116.302H327.858L330.057 103.092H338.392L332.597 138.001H324.347L325.045 133.757H324.79C324.301 134.563 323.676 135.319 322.915 136.024C322.153 136.728 321.25 137.296 320.205 137.728C319.17 138.16 317.994 138.376 316.676 138.376ZM320.614 131.882C321.625 131.882 322.54 131.597 323.358 131.029C324.176 130.45 324.864 129.637 325.42 128.592C325.989 127.546 326.386 126.319 326.614 124.91C326.852 123.478 326.864 122.245 326.648 121.211C326.432 120.177 326.006 119.382 325.369 118.825C324.744 118.268 323.92 117.99 322.898 117.99C321.875 117.99 320.96 118.274 320.153 118.842C319.347 119.41 318.676 120.211 318.142 121.245C317.608 122.279 317.222 123.501 316.983 124.91C316.756 126.319 316.733 127.546 316.915 128.592C317.108 129.637 317.511 130.45 318.125 131.029C318.75 131.597 319.58 131.882 320.614 131.882ZM350.631 103.092L349.983 106.978C349.813 108.058 349.42 109.149 348.807 110.251C348.193 111.342 347.466 112.365 346.625 113.319C345.795 114.274 344.949 115.08 344.085 115.74L340.812 113.796C341.472 112.933 342.097 111.961 342.688 110.882C343.29 109.791 343.716 108.495 343.966 106.995L344.631 103.092H350.631ZM372.253 119.813L364.736 120.018C364.747 119.461 364.622 118.972 364.361 118.552C364.099 118.12 363.73 117.785 363.253 117.546C362.776 117.308 362.207 117.188 361.548 117.188C360.48 117.188 359.52 117.427 358.668 117.904C357.827 118.382 357.355 119.001 357.253 119.762C357.173 120.171 357.287 120.529 357.594 120.836C357.901 121.132 358.582 121.393 359.639 121.62L364.548 122.575C367.071 123.075 368.901 123.944 370.037 125.183C371.185 126.41 371.594 128.035 371.264 130.058C370.969 131.785 370.207 133.279 368.98 134.541C367.764 135.802 366.213 136.779 364.327 137.472C362.452 138.154 360.378 138.495 358.105 138.495C354.264 138.495 351.366 137.722 349.412 136.177C347.469 134.62 346.56 132.558 346.685 129.99L354.798 129.785C354.832 130.751 355.156 131.478 355.77 131.967C356.395 132.444 357.241 132.694 358.31 132.717C359.48 132.74 360.491 132.495 361.344 131.984C362.196 131.472 362.673 130.842 362.776 130.092C362.844 129.603 362.679 129.222 362.281 128.95C361.895 128.677 361.173 128.433 360.116 128.217L355.685 127.347C353.139 126.859 351.298 125.938 350.162 124.586C349.037 123.222 348.651 121.484 349.003 119.37C349.298 117.688 349.991 116.262 351.082 115.092C352.185 113.91 353.622 113.012 355.395 112.399C357.179 111.785 359.213 111.478 361.497 111.478C365.156 111.478 367.918 112.222 369.781 113.711C371.656 115.188 372.48 117.222 372.253 119.813Z" fill="white"/>
</svg>
