<svg width="331" height="393" viewBox="0 0 331 393" fill="none" xmlns="http://www.w3.org/2000/svg">
<path d="M163.691 0C163.79 0.0465639 216.989 25.2738 248.22 34.8848C281.1 45.0033 327.338 50.9806 327.382 50.9863H329.457C329.457 95.3333 332.537 119.145 324.835 165.617C316.106 218.285 298.521 252.366 292.484 263.21C282.999 280.25 284.782 280.251 255.513 320.527C255.368 320.695 206.335 377.654 166.38 391.707L166.375 391.785L165.033 392.31L163.691 391.785L163.688 391.708C123.719 377.652 74.6628 320.655 74.5527 320.527C45.2835 280.251 47.067 280.25 37.582 263.21C31.5458 252.366 13.9608 218.285 5.23145 165.617C-2.47077 119.145 0.608379 95.3333 0.608398 50.9863H0C0.00762982 50.9853 46.2686 45.0073 79.1621 34.8848C110.422 25.265 163.691 0 163.691 0ZM163.951 21.4678C163.819 21.5365 123.303 42.596 95.7266 51.4619C74.6886 58.2258 44.0755 63.4146 28.7686 65.7666H19.8535C19.8535 66.205 19.8512 66.6412 19.8506 67.0752C19.4983 67.1237 19.3145 67.1504 19.3145 67.1504H19.8506C19.7891 105.898 17.2047 127.163 23.9473 168.206C31.6794 215.273 47.2552 245.729 52.6016 255.419C61.0029 270.646 59.4242 270.646 85.3496 306.639C85.3496 306.639 128.474 357.858 163.951 370.317C199.428 357.858 243.093 306.639 243.093 306.639C269.018 270.646 267.439 270.646 275.841 255.419C281.187 245.729 296.763 215.273 304.495 168.206C311.318 126.677 308.589 105.397 308.589 65.7666H298.866C283.472 63.4653 253.092 58.4496 232.177 51.9229C204.556 43.3036 163.951 21.4678 163.951 21.4678Z" fill="#38B6FF"/>
<rect x="155" y="67.3105" width="16" height="143" fill="#38B6FF"/>
<rect x="223" y="102.311" width="16" height="118" transform="rotate(90 223 102.311)" fill="#38B6FF"/>
<path d="M222.574 211.993C222.675 213.648 222.728 215.318 222.728 217.002C222.727 255.733 195.695 287.131 162.35 287.131C129.004 287.131 101.972 255.733 101.972 217.002C101.972 215.318 102.024 213.648 102.125 211.993C104.337 243.533 130.454 268.43 162.35 268.43C194.245 268.43 220.363 243.534 222.574 211.993Z" fill="#38B6FF"/>
</svg>
